<svg version="1.1" id="svg2" xml:space="preserve" viewBox="624.2577317559493 135.19616518358 696.0644427650633 698.0991028191999" xmlns="http://www.w3.org/2000/svg" style="max-height: 500px" width="696.0644427650633" height="698.0991028191999"><metadata id="metadata8">image/svg+xml</metadata><defs id="defs6"/><g id="g10" transform="matrix(1.3333333,0,0,-1.3333333,0,1191.6533)"><g id="g12" transform="scale(0.1)"><path d="m 8218.18,6441.46 c 57.52,45.37 115.77,89.42 174.45,131.92 232.58,168.45 540.89,347.95 825.75,441.18 -125.02,141.88 -265.45,269.86 -418.66,381.32 -104.34,-61.44 -205.43,-128.25 -302.84,-200.15 C 8279.7,7035.18 8069.76,6854.5 7870.1,6660.89 l 348.08,-219.43 v 0" style="fill:#001e4e;fill-opacity:1;fill-rule:evenodd;stroke:none" id="path14"/><path d="m 9373.48,6820.44 c -62.16,-17.6 -123.4,-38.28 -183.41,-61.92 -92.78,-36.63 -183.3,-78.67 -271.03,-125.85 -135.75,-73.2 -266.56,-155.26 -391.41,-245.56 -34.45,-24.98 -68.57,-50.38 -102.38,-76.18 l 349.2,-220.12 c 214.25,122.5 443.43,226.05 689.37,315.3 43.56,16.02 87.16,31.89 130.82,47.6 -63.62,128.71 -137.72,251.32 -221.16,366.73 v 0" style="fill:#001e4e;fill-opacity:1;fill-rule:evenodd;stroke:none" id="path16"/><path d="m 6170.7,7629.76 -0.48,0.69 c -446.41,-216.1 -815.2,-544.69 -1071.79,-966.1 l 4.84,1.83 c 329.65,190.82 692.59,469.56 912.84,752.45 55.82,71.68 105.18,138.77 154.59,211.13 v 0" style="fill:#001e4e;fill-opacity:1;fill-rule:evenodd;stroke:none" id="path18"/><path d="m 7075.75,7876.32 c 3.67,1.01 4.14,1.44 0.86,1.17 -0.29,-0.39 -0.57,-0.78 -0.86,-1.17 v 0" style="fill:#001e4e;fill-opacity:1;fill-rule:evenodd;stroke:none" id="path20"/><path d="m 4734.42,5036.24 1.3,-0.47 c -0.18,1.73 -0.36,3.45 -0.56,5.18 358.66,119.86 705.26,293.19 1011.15,501.2 v 511.07 c -45.86,-30.78 -93.95,-61.32 -144.77,-91.88 -153.57,-94.57 -311.89,-182.83 -473.12,-263.68 -132.13,-66.22 -265.75,-129.37 -400.76,-189.37 l -2.51,-1.67 c -5.47,-68.49 -5.81,-120.5 -5.81,-190.39 0,-94.61 5.11,-188.03 15.08,-279.99 v 0" style="fill:#001e4e;fill-opacity:1;fill-rule:evenodd;stroke:none" id="path22"/><path d="m 4897.57,4377.13 c 295.45,115.94 582.52,256.46 848.74,419.49 v 469.57 c -95.8,-60.33 -194.07,-116.7 -294.52,-168.93 -218.9,-114.53 -446.98,-210.54 -681.41,-286.92 11.44,-102.09 84.14,-357.97 127.19,-433.21 v 0" style="fill:#001e4e;fill-opacity:1;fill-rule:evenodd;stroke:none" id="path24"/><path d="m 5218.32,3795.86 c 52.95,19.27 105.45,39.89 157.43,61.83 139.25,60.03 274.3,128.94 404.33,206.22 h -33.77 v 463.55 c -53.61,-30.79 -107.84,-60.52 -162.64,-89.17 -192.63,-101.11 -390.38,-191.71 -592.36,-271.46 35.4,-102.12 177.25,-316.38 227.01,-370.97 v 0" style="fill:#001e4e;fill-opacity:1;fill-rule:evenodd;stroke:none" id="path26"/><path d="m 5737.36,3267.56 c 0,0 70.25,49.29 108.93,71.02 208.61,117.78 406.14,254.2 590.18,407.59 116.78,99.07 229.91,205.87 339.34,317.74 h -579.2 c -226.68,-165.87 -475.16,-308.86 -730.6,-417.82 -31.08,-13.26 -62.8,-26.18 -95.02,-38.73 -5.6,6.29 226.77,-233.89 366.37,-339.8 v 0" style="fill:#001e4e;fill-opacity:1;fill-rule:evenodd;stroke:none" id="path28"/><path d="m 6385.74,2910.01 c 113.5,72.65 222.6,152.48 328.76,240.85 101.47,86.63 197.32,179.62 286.83,278.26 99.65,110.26 195.03,224.32 285.89,341.91 l 222.19,292.88 h -416.2 c -155.87,-172.94 -332.87,-345.97 -508.67,-493.81 -188.97,-158.91 -410.19,-310.77 -625.36,-431.96 -5.86,-3.29 -11.72,-6.58 -17.57,-9.85 64.4,-51.31 366.82,-185.07 444.13,-218.28 v 0" style="fill:#001e4e;fill-opacity:1;fill-rule:evenodd;stroke:none" id="path30"/><path d="m 7085.45,2754.25 c 65.48,59.78 128.68,122.09 189.41,186.8 174.25,187.76 339.94,383.27 496.57,585.96 139.46,182.66 293.65,365.01 454.91,536.9 h -428.17 l -328.29,-432.75 c -173.33,-226.38 -407.7,-488.11 -607.08,-656.18 -62.51,-52.7 -128.21,-103.68 -196.22,-152.51 51.84,-21.73 342.62,-62.44 418.87,-68.22 v 0" style="fill:#001e4e;fill-opacity:1;fill-rule:evenodd;stroke:none" id="path32"/><path d="m 4759.14,5769.22 c 0,0 178.94,90.37 266.16,134.09 333.27,167.16 678.4,372.68 950.68,627.94 244.13,243.56 446.86,490.74 665.13,770.01 147.32,189.85 292.21,381.55 434.64,575.06 -42.28,-11.66 -509.26,-101.37 -539.89,-103.48 -109.02,-177.69 -225.91,-352.09 -338.27,-495.58 -68.64,-88.64 -144.1,-171.78 -225.53,-248.51 -243.79,-230.65 -527.15,-439.18 -821.77,-600.23 -72.04,-39.39 -148,-75.3 -225.68,-107.09 4.35,10.24 -129.31,-348.84 -165.47,-552.21 v 0" style="fill:#001e4e;fill-opacity:1;fill-rule:evenodd;stroke:none" id="path34"/><path d="m 9476.8,3966.34 c -7.44,-3.88 -14.88,-7.79 -22.31,-11.72 -238.04,-131.96 -462.6,-286.93 -670.42,-462.65 -150.58,-127.38 -285.86,-267.64 -408.14,-422.37 -33.64,-42.55 -66.46,-84.66 -98.75,-126.74 498.93,207.89 918.27,568.52 1199.62,1023.48 v 0" style="fill:#001e4e;fill-opacity:1;fill-rule:evenodd;stroke:none" id="path36"/><path d="m 7898.43,2818.77 c 94.98,132.22 197.39,267.69 296.95,393.4 131.02,166.1 278.59,318.83 440.14,455.44 209.95,177.57 467.4,358.18 709.37,489.29 97.13,52.62 200.82,102.06 307.65,147.38 72.32,168.64 127.07,346.57 162.06,531.51 -202.01,-72.72 -386.65,-151.31 -579.53,-248.83 -154.6,-78.56 -299.76,-174.34 -432.74,-285.47 v -237.58 h -253.72 c -56.32,-55.84 -111.66,-112.61 -166,-170.26 -155.96,-166.62 -289.75,-325.82 -428.75,-506.8 -151.11,-196.74 -341.57,-421.41 -510.82,-602.77 -10.96,-11.74 -22.05,-23.45 -33.28,-35.13 167.58,7.72 330.97,31.5 488.67,69.82 v 0" style="fill:#001e4e;fill-opacity:1;fill-rule:evenodd;stroke:none" id="path38"/><path d="m 7670.16,6786.93 c 8.97,8.9 17.97,17.78 26.97,26.64 253.89,250.51 571.6,518.82 890.53,721.16 -149.36,87.59 -308.34,160.54 -475,216.85 -71.43,-65.5 -127.1,-118.47 -209.22,-201.62 -178.31,-180.67 -356.77,-375.37 -530.28,-575.81 l 297,-187.22 v 0" style="fill:#001e4e;fill-opacity:1;fill-rule:evenodd;stroke:none" id="path40"/><path d="m 8802.33,4592.31 c 292.03,206.93 640.51,357.27 967.47,471.75 26.7,9.53 53.3,18.97 80,28.32 6.4,73.77 9.6,148.43 9.6,223.85 0,81.26 -3.7,161.65 -11.1,240.99 -180.75,-56.25 -358.26,-122.64 -531.71,-198.87 -178.84,-78.71 -350.84,-171.77 -514.26,-278.14 v -487.9 0" style="fill:#001e4e;fill-opacity:1;fill-rule:evenodd;stroke:none" id="path42"/><path d="m 8802.33,5351.68 c 315.19,186.78 658.55,328.85 1013.97,436.19 -29.19,157 -72.56,308.99 -128.82,454.57 -47.39,-17 -95.49,-34.43 -144.69,-52.4 C 9282.7,6095 9040.45,5981.4 8802.33,5840.67 v -488.99 0" style="fill:#001e4e;fill-opacity:1;fill-rule:evenodd;stroke:none" id="path44"/><path d="m 6932.18,6807.19 c 105.23,128.49 212.5,255.29 321.75,380.34 182.03,209.13 394.79,437.76 600.42,636.45 -157.44,35.31 -320.33,56.18 -487.22,61.14 -288.42,-397.47 -598.42,-803.99 -865.34,-1120 -192.72,-230.49 -360.8,-411.8 -570.91,-577.67 l 1001.3,619.74 v 0" style="fill:#001e4e;fill-opacity:1;fill-rule:evenodd;stroke:none" id="path46"/><path d="m 5931.93,6187.45 -184.57,-114.23 v -20 c 65.64,44.04 126.7,88.55 184.57,134.23 v 0" style="fill:#a58757;fill-opacity:1;fill-rule:evenodd;stroke:none" id="path48"/><path d="m 7374.22,6974.15 -84.83,53.47 -356.15,-220.43 c -154.69,-188.88 -304.97,-381.41 -450.69,-577.4 -157.07,-208.02 -336.91,-388.7 -542.98,-548.2 -61.98,-47.97 -126.14,-94.51 -192.21,-139.44 v -275.96 c 114.71,72.24 225.87,150.16 333.03,233.48 215.43,166 424.09,374.05 586.5,592.5 215.02,289.2 455.99,591.61 707.33,881.98 v 0" style="fill:#a58757;fill-opacity:1;fill-rule:evenodd;stroke:none" id="path50"/><path d="m 6776.88,4063.91 h 317.39 c 15.72,17.45 31.25,34.9 46.52,52.32 176.16,199.89 360.71,424.28 521.73,636.94 150.49,198.75 311.45,385.73 485.36,564.34 192.73,197.96 407.75,370.6 642.91,515.68 4.19,2.5 8.39,4.99 12.59,7.48 v 232.55 l -27.89,17.59 c -289.94,-165.77 -552.58,-366.22 -792.48,-612.86 -179.91,-184.61 -348.22,-380.31 -503.9,-585.9 -214.09,-281.47 -448.25,-568.49 -702.23,-828.14 v 0" style="fill:#a58757;fill-opacity:1;fill-rule:evenodd;stroke:none" id="path52"/><path d="m 7510.47,4063.91 h 288.75 l 246.07,324.36 c 154.85,200.8 335.05,380.7 536.11,535.22 72.03,55.04 146.08,107.31 221.98,156.72 v 271.47 c -357.84,-212.07 -679.34,-481.75 -940.81,-823.63 l -352.1,-464.14 v 0" style="fill:#a58757;fill-opacity:1;fill-rule:evenodd;stroke:none" id="path54"/><path d="m 8227.39,4063.91 h 322.27 c 70.79,70.19 143.11,138.93 216.88,206.11 12.17,10.62 24.45,21.11 36.84,31.47 v 290.82 C 8736.82,4545.14 8673.2,4495.03 8613.41,4441.73 8482.88,4325.33 8353,4197.8 8227.39,4063.91 v 0" style="fill:#a58757;fill-opacity:1;fill-rule:evenodd;stroke:none" id="path56"/><path d="m 7871.16,6660.89 -199.95,126.04 c -345.33,-342.7 -660.38,-714.92 -941.42,-1112.33 -185.61,-255.4 -403.18,-472.19 -657.16,-659.48 -104.07,-76.75 -212.81,-149.63 -325.27,-218.5 v -269.16 c 159.64,91.66 313.89,192.68 461.84,302.52 260.98,191.2 520.86,446.51 707.97,711.16 273.69,387.1 597.46,774.03 953.99,1119.75 v 0" style="fill:#a58757;fill-opacity:1;fill-rule:evenodd;stroke:none" id="path58"/><path d="m 8426.3,6310.93 -207.06,130.53 c -142.94,-112.75 -281.36,-233.59 -410.81,-358.8 -289.6,-280.11 -567.92,-590.68 -814.5,-909.32 -223.64,-289 -473.98,-549.93 -754.21,-784.53 -144.11,-120.52 -297.49,-229.14 -458.59,-324.9 h 416.52 c 65.17,47.69 128.53,97.28 189.73,148.49 291.39,243.81 556.33,519.55 788.55,820.23 242.82,313.17 507.7,608.88 792.49,884.73 144.85,139.91 297.76,271.34 457.88,393.57 v 0" style="fill:#a58757;fill-opacity:1;fill-rule:evenodd;stroke:none" id="path60"/><path d="m 1979.15,1643.95 c -0.02,63.11 0.01,111.7 0.09,145.77 0.08,34.07 0.3,59.65 0.64,76.73 0.35,17.08 0.93,31.69 1.73,43.84 0.9,21.42 4.65,37.76 11.25,49.01 6.6,11.26 18.05,18.35 34.36,21.28 7.21,1.23 13.12,2.15 17.73,2.77 4.59,0.62 8.95,0.92 13.09,0.92 2.57,0 4.82,0.62 6.77,1.84 1.96,1.22 2.98,3.05 3.08,5.49 0.04,3.62 -1.56,6.16 -4.76,7.64 -3.22,1.48 -8.2,2.19 -14.96,2.14 -13.01,-0.05 -28.47,-0.35 -46.36,-0.92 -17.89,-0.57 -34.07,-1.14 -48.54,-1.71 -14.46,-0.57 -23.07,-0.87 -25.81,-0.92 -5.03,0.15 -22.07,0.74 -51.12,1.78 -29.05,1.03 -58.42,1.62 -88.11,1.77 -6.75,0.05 -11.74,-0.66 -14.94,-2.14 -3.22,-1.48 -4.81,-4.02 -4.79,-7.64 0.11,-2.44 1.13,-4.27 3.09,-5.49 1.95,-1.22 4.21,-1.84 6.79,-1.84 5.98,0 13.11,-0.3 21.41,-0.92 8.3,-0.62 15.13,-1.54 20.5,-2.77 19.85,-4.09 33.48,-11.64 40.84,-22.66 7.37,-11.02 11.43,-26.9 12.17,-47.63 0.81,-12.15 1.4,-26.76 1.74,-43.84 0.35,-17.08 0.57,-42.66 0.64,-76.73 0.07,-34.07 0.11,-82.66 0.09,-145.77 v -25.9 c -0.07,-3 -0.85,-5.01 -2.31,-6.01 -1.47,-1 -3.16,-1.46 -5.08,-1.39 h -522.77 c -1.93,-0.07 -3.62,0.39 -5.09,1.39 -1.46,1 -2.23,3.01 -2.31,6.01 v 25.9 c -0.01,63.11 0.02,111.7 0.09,145.77 0.08,34.07 0.29,59.65 0.65,76.73 0.34,17.08 0.93,31.69 1.73,43.84 0.9,21.42 4.65,37.76 11.25,49.01 6.61,11.26 18.06,18.35 34.37,21.28 7.22,1.23 13.12,2.15 17.72,2.77 4.61,0.62 8.96,0.92 13.11,0.92 2.57,0 4.82,0.62 6.77,1.84 1.96,1.22 2.98,3.05 3.08,5.49 0.04,3.62 -1.56,6.16 -4.77,7.64 -3.22,1.48 -8.19,2.19 -14.94,2.14 -13.03,-0.05 -28.48,-0.35 -46.39,-0.92 -17.89,-0.57 -34.07,-1.14 -48.54,-1.71 -14.46,-0.57 -23.07,-0.87 -25.82,-0.92 -5.02,0.15 -22.06,0.74 -51.11,1.78 -29.05,1.03 -58.41,1.62 -88.09,1.77 -6.76,0.05 -11.74,-0.66 -14.94,-2.14 -3.22,-1.48 -4.81,-4.02 -4.77,-7.64 0.09,-2.44 1.12,-4.27 3.07,-5.49 1.95,-1.22 4.21,-1.84 6.78,-1.84 5.99,0 13.12,-0.3 21.42,-0.92 8.29,-0.62 15.12,-1.54 20.5,-2.77 19.83,-4.09 33.44,-11.64 40.82,-22.66 7.36,-11.02 11.43,-26.9 12.18,-47.63 0.79,-12.15 1.37,-26.76 1.73,-43.84 0.34,-17.08 0.55,-42.66 0.63,-76.73 0.08,-34.07 0.12,-82.66 0.09,-145.77 v -216.84 c 0.13,-59.7 -0.13,-112.61 -0.77,-158.75 -0.64,-46.13 -2.43,-82.4 -5.39,-108.8 -2.11,-18.17 -5.6,-33.32 -10.47,-45.47 -4.89,-12.15 -13.31,-19.6 -25.28,-22.35 -5.7,-1.28 -11.86,-2.42 -18.49,-3.39 -6.62,-0.98 -12.78,-1.49 -18.48,-1.54 -3.65,-0.08 -6.22,-0.84 -7.71,-2.29 -1.49,-1.45 -2.2,-3.13 -2.15,-5.04 -0.03,-3.62 1.56,-6.16 4.77,-7.64 3.21,-1.47 8.19,-2.18 14.95,-2.13 13.01,0.04 28.48,0.34 46.36,0.92 17.89,0.57 34.07,1.13 48.54,1.7 14.46,0.57 23.08,0.88 25.81,0.92 4.77,-0.15 22.32,-0.74 52.66,-1.77 30.33,-1.03 63.3,-1.62 98.9,-1.77 6.75,0.02 11.74,0.89 14.96,2.59 3.2,1.71 4.79,4.1 4.77,7.18 0.05,1.91 -0.67,3.59 -2.16,5.04 -1.49,1.45 -4.06,2.21 -7.7,2.29 -6.09,0.05 -14.57,0.56 -25.43,1.54 -10.87,0.97 -20.89,2.11 -30.06,3.39 -17.94,2.75 -30.13,10.2 -36.51,22.35 -6.41,12.15 -10.25,27.3 -11.57,45.47 -2.96,26.4 -4.75,62.67 -5.4,108.8 -0.64,46.14 -0.9,99.05 -0.77,158.75 v 129.46 c 0.08,3.01 0.85,5.01 2.31,6.01 1.47,1 3.16,1.47 5.09,1.39 h 522.77 c 1.92,0 3.61,-0.62 5.08,-1.85 1.46,-1.23 2.24,-3.08 2.31,-5.55 v -129.46 c 0.13,-59.7 -0.13,-112.61 -0.77,-158.75 -0.64,-46.13 -2.44,-82.4 -5.39,-108.8 -2.11,-18.17 -5.61,-33.32 -10.48,-45.47 -4.89,-12.15 -13.31,-19.6 -25.27,-22.35 -5.71,-1.28 -11.88,-2.42 -18.5,-3.39 -6.63,-0.98 -12.8,-1.49 -18.5,-1.54 -3.65,-0.08 -6.21,-0.84 -7.7,-2.29 -1.49,-1.45 -2.21,-3.13 -2.16,-5.04 -0.03,-3.62 1.56,-6.16 4.79,-7.64 3.2,-1.47 8.18,-2.18 14.93,-2.13 13.03,0.04 28.48,0.34 46.39,0.92 17.88,0.57 34.06,1.13 48.53,1.7 14.47,0.57 23.07,0.88 25.82,0.92 4.77,-0.15 22.33,-0.74 52.65,-1.77 30.34,-1.03 63.29,-1.62 98.88,-1.77 13.35,0.2 19.92,3.46 19.72,9.77 0.06,1.91 -0.67,3.59 -2.16,5.04 -1.49,1.45 -4.06,2.21 -7.69,2.29 -6.1,0.05 -14.57,0.56 -25.43,1.54 -10.87,0.97 -20.88,2.11 -30.05,3.39 -17.95,2.75 -30.12,10.2 -36.5,22.35 -6.41,12.15 -10.25,27.3 -11.57,45.47 -2.95,26.4 -4.75,62.67 -5.39,108.8 -0.63,46.14 -0.9,99.05 -0.77,158.75 v 216.84 0" style="fill:#001e4e;fill-opacity:1;fill-rule:evenodd;stroke:none" id="path62"/><path d="m 2246.77,1536.78 c -0.35,-75.84 15.95,-150.57 48.9,-224.19 32.96,-73.62 84.68,-134.92 155.16,-183.88 70.49,-48.97 161.85,-74.39 274.1,-76.26 99.61,1.11 186.12,24.21 259.53,69.32 73.42,45.1 130.33,105.54 170.74,181.32 40.39,75.78 60.88,160.26 61.45,253.41 -0.84,96.14 -22.15,178.63 -63.92,247.48 -41.78,68.85 -98.96,121.74 -171.55,158.67 -72.6,36.94 -155.55,55.6 -248.85,55.98 -84.94,-0.95 -158.08,-16.68 -219.42,-47.2 -61.34,-30.52 -111.66,-70.13 -150.96,-118.83 -39.3,-48.7 -68.34,-100.79 -87.16,-156.28 -18.81,-55.48 -28.15,-108.66 -28.02,-159.54 z m 116.94,34.52 c 0.63,90 16.49,165.05 47.58,225.14 31.09,60.09 73.61,105.19 127.57,135.28 53.97,30.1 115.59,45.15 184.84,45.16 65.95,-0.14 127.19,-17.53 183.73,-52.19 56.55,-34.65 102.27,-85.74 137.18,-153.27 34.89,-67.53 52.85,-150.67 53.87,-249.44 -0.91,-89.08 -13.43,-161.55 -37.57,-217.41 -24.12,-55.86 -54.45,-98.7 -90.96,-128.54 -36.5,-29.83 -73.75,-50.26 -111.75,-61.27 -38,-11.02 -71.34,-16.22 -99.98,-15.62 -74.73,0.51 -141.7,20.03 -200.91,58.58 -59.2,38.54 -106.08,93.04 -140.63,163.5 -34.55,70.46 -52.21,153.82 -52.97,250.08 v 0" style="fill:#001e4e;fill-opacity:1;fill-rule:evenodd;stroke:none" id="path64"/><path d="m 3443.61,1464.04 c 0.68,-88.63 11,-157.93 30.91,-207.88 19.93,-49.95 45.31,-88.73 76.16,-116.34 29.91,-27.04 61.73,-46.8 95.43,-59.3 33.71,-12.49 64.88,-20.41 93.52,-23.74 28.64,-3.33 50.32,-4.78 65.03,-4.33 36.86,-1.13 77.18,4.2 120.98,15.99 43.79,11.79 88.13,36.82 133,75.08 47.81,45.33 78.99,101.06 93.56,167.19 14.57,66.13 21.13,133.27 19.69,201.41 v 131.9 c -0.01,63.1 0.02,111.68 0.09,145.74 0.08,34.07 0.29,59.63 0.65,76.71 0.34,17.08 0.92,31.69 1.73,43.83 0.89,21.35 4.64,37.53 11.25,48.54 6.59,11.02 18.04,18.26 34.35,21.73 7.22,1.23 13.12,2.16 17.72,2.78 4.61,0.62 8.96,0.92 13.09,0.92 2.57,0 4.84,0.62 6.78,1.84 1.97,1.22 2.99,3.05 3.09,5.49 0.02,3.62 -1.57,6.16 -4.78,7.64 -3.21,1.48 -8.18,2.19 -14.95,2.14 -19.95,-0.15 -40.73,-0.74 -62.37,-1.77 -21.63,-1.04 -35.33,-1.63 -41.09,-1.78 -5.21,0.15 -20.96,0.74 -47.25,1.78 -26.31,1.03 -54.09,1.62 -83.34,1.77 -6.75,0.05 -11.73,-0.66 -14.95,-2.14 -3.21,-1.48 -4.8,-4.02 -4.78,-7.64 0.1,-2.44 1.14,-4.27 3.08,-5.49 1.96,-1.22 4.22,-1.84 6.78,-1.84 5.99,0 13.14,-0.3 21.43,-0.92 8.29,-0.62 15.13,-1.55 20.49,-2.78 19.86,-4.08 33.47,-11.63 40.85,-22.65 7.37,-11.02 11.44,-26.89 12.17,-47.62 0.81,-12.14 1.38,-26.75 1.73,-43.83 0.36,-17.08 0.57,-42.64 0.64,-76.71 0.08,-34.06 0.11,-82.64 0.09,-145.74 v -154.09 c 0.57,-63.75 -4.26,-121.18 -14.48,-172.28 -10.21,-51.11 -29.23,-94.36 -57.02,-129.75 -22.78,-26.89 -51.19,-48.31 -85.23,-64.26 -34.03,-15.95 -70.15,-24.12 -108.34,-24.5 -34.73,-0.72 -66.99,3.49 -96.78,12.63 -29.8,9.14 -59.59,27.53 -89.4,55.17 -27.03,23.7 -49.08,58.58 -66.1,104.63 -17.04,46.05 -25.83,112.67 -26.36,199.86 v 172.59 c -0.02,63.1 0.02,111.68 0.09,145.74 0.07,34.07 0.29,59.63 0.64,76.71 0.36,17.08 0.92,31.69 1.73,43.83 0.9,21.5 4.65,37.99 11.25,49.47 6.6,11.48 18.06,18.41 34.38,20.8 7.21,1.23 13.11,2.16 17.71,2.78 4.6,0.62 8.97,0.92 13.1,0.92 2.57,0 4.83,0.62 6.78,1.84 1.96,1.22 2.98,3.05 3.09,5.49 0.02,3.62 -1.57,6.16 -4.78,7.64 -3.21,1.48 -8.2,2.19 -14.95,2.14 -12.95,-0.05 -28.15,-0.35 -45.59,-0.92 -17.46,-0.57 -33.48,-1.14 -48.05,-1.71 -14.58,-0.57 -24.02,-0.87 -28.33,-0.92 -7.28,0.15 -25.34,0.74 -54.19,1.78 -28.84,1.03 -58,1.62 -87.48,1.77 -6.75,0.05 -11.72,-0.66 -14.94,-2.14 -3.21,-1.48 -4.8,-4.02 -4.78,-7.64 0.1,-2.44 1.13,-4.27 3.09,-5.49 1.95,-1.22 4.2,-1.84 6.77,-1.84 5.99,0 13.12,-0.3 21.42,-0.92 8.29,-0.62 15.13,-1.55 20.49,-2.78 19.85,-4.08 33.46,-11.63 40.83,-22.65 7.37,-11.02 11.43,-26.89 12.17,-47.62 0.82,-12.14 1.39,-26.75 1.75,-43.83 0.34,-17.08 0.55,-42.64 0.62,-76.71 0.08,-34.06 0.11,-82.64 0.11,-145.74 v -179.98 0" style="fill:#001e4e;fill-opacity:1;fill-rule:evenodd;stroke:none" id="path66"/><path d="m 4624.16,1052.45 c 33.57,-0.15 66.3,3.84 98.18,11.98 31.88,8.14 61.22,21.35 88.02,39.64 41.52,31.79 69.57,67.13 84.16,106.02 14.59,38.88 21.4,71.76 20.46,98.62 1.59,48.05 -10.21,94.34 -35.39,138.84 -25.21,44.51 -73.35,94.8 -144.45,150.87 l -34.53,27.12 c -58.07,44.69 -97.96,81.98 -119.64,111.88 -21.68,29.89 -31.97,61.64 -30.84,95.23 1.01,45.33 15.66,80.41 43.94,105.25 28.29,24.83 64.22,37.41 107.75,37.75 55.61,-1.88 94.54,-11.07 116.83,-27.58 22.28,-16.52 34.71,-29.1 37.27,-37.75 3.82,-7.58 7.25,-17.7 10.3,-30.36 3.05,-12.66 4.96,-23.09 5.69,-31.28 0.49,-4.99 1.36,-8.89 2.63,-11.72 1.25,-2.82 3.66,-4.26 7.23,-4.31 3.04,-0.05 5.24,2.21 6.61,6.78 1.35,4.57 2.01,11.76 2,21.57 0.19,41.74 1.01,73.21 2.45,94.43 1.44,21.21 2.25,33.26 2.46,36.14 0.1,3.04 -0.72,5.23 -2.46,6.58 -1.74,1.36 -5.03,2.02 -9.84,1.99 -4.63,-0.05 -10.13,0.36 -16.45,1.24 -6.34,0.87 -15.2,2.51 -26.62,4.93 -15.24,3.75 -32.2,6.73 -50.85,8.94 -18.65,2.2 -39.92,3.33 -63.81,3.38 -79.15,-0.99 -141.24,-21.46 -186.28,-61.4 -45.03,-39.94 -67.96,-93.38 -68.8,-160.33 -1.5,-41.12 8.86,-82.78 31.09,-124.98 22.2,-42.19 65.22,-89.71 129.03,-142.54 l 55.49,-45.61 c 52.32,-42.23 89.21,-79.52 110.69,-111.88 21.48,-32.36 31.86,-69.03 31.15,-110.02 0.05,-41.36 -14.56,-78.54 -43.79,-111.57 -29.23,-33.03 -73.43,-50.5 -132.57,-52.4 -42.59,-0.46 -81.02,9.1 -115.28,28.67 -34.27,19.57 -56.67,51.93 -67.2,97.08 -1.77,8.76 -2.84,17.13 -3.24,25.12 -0.39,7.98 -0.53,14.82 -0.46,20.49 0.11,4.88 -0.41,8.37 -1.53,10.48 -1.13,2.11 -3.47,3.13 -7.04,3.08 -3.02,0.03 -5.25,-1.56 -6.73,-4.77 -1.49,-3.21 -2.5,-8.2 -3.08,-14.95 -0.79,-10.22 -1.96,-26.76 -3.51,-49.62 -1.56,-22.86 -2.43,-49.88 -2.61,-81.06 -0.3,-15.97 0.61,-26.86 2.77,-32.66 2.13,-5.8 7.34,-10.51 15.6,-14.14 25.36,-12.13 51.97,-20.73 79.81,-25.8 27.84,-5.07 56.31,-7.52 85.39,-7.37 v 0" style="fill:#001e4e;fill-opacity:1;fill-rule:evenodd;stroke:none" id="path68"/><path d="m 5240.42,1427.11 c 0.13,-59.65 -0.13,-112.54 -0.77,-158.65 -0.63,-46.12 -2.44,-82.38 -5.39,-108.77 -2.11,-18.16 -5.6,-33.31 -10.47,-45.46 -4.89,-12.14 -13.31,-19.59 -25.28,-22.34 -5.7,-1.35 -11.86,-2.53 -18.47,-3.52 -6.64,-0.99 -12.8,-1.51 -18.5,-1.56 -3.65,-0.08 -6.22,-0.84 -7.71,-2.29 -1.49,-1.45 -2.2,-3.13 -2.15,-5.04 -0.03,-3.62 1.57,-6.16 4.77,-7.64 3.21,-1.47 8.19,-2.18 14.95,-2.13 9.52,0.1 20.67,0.5 33.43,1.22 12.76,0.71 25.46,1.12 38.05,1.22 13.21,0.6 24.34,0.97 33.39,1.1 9.05,0.13 14.34,0.18 15.84,0.15 9.09,0 21.39,-0.31 36.94,-0.92 15.54,-0.62 35.26,-1.54 59.15,-2.77 23.95,-0.7 53.14,-1.47 87.57,-2.32 34.43,-0.84 74.72,-1.3 120.86,-1.38 23.2,-0.67 39.17,0.66 47.94,3.99 8.77,3.33 14.92,12.65 18.47,27.96 2.14,9.42 4.44,22.85 6.89,40.28 2.46,17.43 4.59,33.97 6.36,49.62 1.76,15.66 2.69,25.54 2.77,29.64 0.16,4.55 -0.15,8.72 -0.92,12.52 -0.76,3.8 -2.93,5.81 -6.47,6.05 -3.01,0.07 -5.31,-1.33 -6.94,-4.2 -1.6,-2.87 -3,-7.66 -4.16,-14.37 -4.07,-24.97 -10.39,-44.39 -18.94,-58.26 -8.54,-13.87 -20.68,-24.04 -36.43,-30.52 -16.93,-6.5 -36.64,-10.45 -59.14,-11.87 -22.5,-1.41 -42.23,-1.97 -59.18,-1.69 -58.61,-1.11 -97.11,5.11 -115.48,18.65 -18.36,13.54 -27.57,41.02 -27.6,82.46 -0.38,9.98 -0.57,28.93 -0.53,56.85 0.02,27.93 0.11,56.74 0.27,86.45 0.16,29.71 0.25,52.22 0.26,67.54 v 108.51 c -0.01,2.52 0.65,4.57 2.01,6.16 1.36,1.59 3.57,2.42 6.64,2.47 8.15,-0.01 24.03,-0.27 47.63,-0.78 23.6,-0.51 47.89,-1.22 72.87,-2.14 24.96,-0.92 43.59,-2 55.85,-3.24 23.41,-2.88 39.49,-8.53 48.26,-16.96 8.76,-8.42 14.05,-17.16 15.87,-26.2 2.37,-7.94 3.81,-15.18 4.32,-21.73 0.51,-6.55 0.72,-12.87 0.63,-18.96 -0.04,-3.16 0.62,-5.78 1.98,-7.86 1.34,-2.08 3.53,-3.16 6.57,-3.24 4.09,0.36 6.58,3.03 7.47,8.02 0.89,4.98 1.25,10.12 1.07,15.41 0.05,5.52 0.57,16.67 1.54,33.44 0.98,16.78 2.12,31.93 3.39,45.47 2.03,20.14 4.14,35.76 6.32,46.86 2.18,11.11 3.37,18.45 3.54,22.02 -0.03,3.65 -0.58,6.22 -1.69,7.71 -1.11,1.49 -2.6,2.21 -4.46,2.16 -2.4,-0.06 -5.02,-1.49 -7.86,-4.32 -2.83,-2.83 -6.35,-6.73 -10.55,-11.71 -5.39,-5.96 -12.72,-10.07 -21.99,-12.34 -9.26,-2.26 -21.24,-3.9 -35.91,-4.93 -11.05,-0.8 -31.01,-1.38 -59.87,-1.73 -28.88,-0.35 -57.07,-0.57 -84.55,-0.64 -27.5,-0.08 -44.73,-0.11 -51.68,-0.09 -3,-0.03 -5,0.95 -6,2.92 -1,1.98 -1.47,5.12 -1.4,9.41 v 340.33 c 0,4.29 0.63,7.43 1.85,9.4 1.24,1.98 3.1,2.96 5.55,2.93 5.97,0 21.03,-0.14 45.18,-0.41 24.16,-0.27 48.71,-0.68 73.68,-1.23 24.98,-0.55 41.67,-1.23 50.12,-2.06 32.24,-3.75 54.07,-9.19 65.49,-16.34 11.42,-7.14 18.75,-15.67 21.97,-25.58 2.99,-7.79 4.96,-15.96 5.95,-24.51 1,-8.55 1.46,-15.18 1.38,-19.88 -0.04,-4.99 0.67,-8.89 2.16,-11.72 1.5,-2.82 4.05,-4.26 7.7,-4.31 2.44,0.18 4.35,1.67 5.71,4.47 1.35,2.8 2.34,5.83 2.92,9.09 1.26,9.03 2.44,22.87 3.54,41.5 1.11,18.63 1.98,31.87 2.63,39.73 2.03,16.98 4.12,29.87 6.31,38.68 2.19,8.8 3.36,15.22 3.54,19.25 0.04,3.16 -0.32,5.78 -1.08,7.86 -0.74,2.08 -2.02,3.16 -3.85,3.24 -3.03,-0.18 -5.91,-1.06 -8.63,-2.62 -2.72,-1.57 -5.6,-2.75 -8.63,-3.55 -5.05,-1.25 -12.16,-2.43 -21.34,-3.54 -9.16,-1.1 -19.68,-1.98 -31.5,-2.62 -8.29,-0.3 -26.57,-0.54 -54.88,-0.71 -28.3,-0.17 -59.53,-0.29 -93.69,-0.37 -34.17,-0.07 -64.17,-0.12 -90,-0.13 -25.84,-0.02 -40.43,-0.02 -43.77,-0.02 l -50.46,2.46 c -13.79,0.59 -28.42,0.95 -43.91,1.08 -15.47,0.13 -30.42,0.18 -44.83,0.16 -6.75,0.05 -11.73,-0.66 -14.95,-2.14 -3.21,-1.48 -4.8,-4.02 -4.76,-7.64 0.09,-2.44 1.12,-4.27 3.07,-5.49 1.95,-1.22 4.21,-1.84 6.78,-1.84 5.99,0.01 13.13,-0.3 21.41,-0.92 8.3,-0.61 15.13,-1.54 20.5,-2.77 19.85,-4.09 33.46,-11.64 40.83,-22.66 7.36,-11.02 11.42,-26.89 12.17,-47.63 0.81,-12.14 1.38,-26.76 1.73,-43.84 0.35,-17.08 0.56,-42.65 0.65,-76.72 0.07,-34.07 0.11,-82.66 0.08,-145.78 v -216.84 0" style="fill:#001e4e;fill-opacity:1;fill-rule:evenodd;stroke:none" id="path70"/><path d="m 6252.19,1536.78 c -0.35,-75.84 15.95,-150.57 48.9,-224.19 32.95,-73.62 84.68,-134.92 155.16,-183.88 70.49,-48.97 161.86,-74.39 274.11,-76.26 99.59,1.11 186.1,24.21 259.52,69.32 73.42,45.1 130.33,105.54 170.73,181.32 40.4,75.78 60.89,160.26 61.46,253.41 -0.85,96.14 -22.15,178.63 -63.93,247.48 -41.76,68.85 -98.94,121.74 -171.55,158.67 -72.59,36.94 -155.54,55.6 -248.85,55.98 -84.93,-0.95 -158.07,-16.68 -219.4,-47.2 -61.35,-30.52 -111.67,-70.13 -150.96,-118.83 -39.31,-48.7 -68.36,-100.79 -87.17,-156.28 -18.81,-55.48 -28.15,-108.66 -28.02,-159.54 z m 116.94,34.52 c 0.63,90 16.5,165.05 47.58,225.14 31.08,60.09 73.61,105.19 127.58,135.28 53.96,30.1 115.57,45.15 184.84,45.16 65.93,-0.14 127.18,-17.53 183.73,-52.19 56.53,-34.65 102.27,-85.74 137.16,-153.27 34.89,-67.53 52.86,-150.67 53.87,-249.44 -0.9,-89.08 -13.42,-161.55 -37.56,-217.41 -24.13,-55.86 -54.45,-98.7 -90.95,-128.54 -36.5,-29.83 -73.77,-50.26 -111.77,-61.27 -38.01,-11.02 -71.32,-16.22 -99.98,-15.62 -74.73,0.51 -141.7,20.03 -200.9,58.58 -59.21,38.54 -106.09,93.04 -140.64,163.5 -34.55,70.46 -52.2,153.82 -52.96,250.08 v 0" style="fill:#001e4e;fill-opacity:1;fill-rule:evenodd;stroke:none" id="path72"/><path d="m 7483.54,1427.11 c 0.11,-59.69 -0.14,-112.61 -0.79,-158.74 -0.64,-46.14 -2.43,-82.41 -5.39,-108.81 -2.1,-18.16 -5.6,-33.32 -10.47,-45.47 -4.87,-12.15 -13.31,-19.6 -25.26,-22.35 -5.71,-1.28 -11.88,-2.42 -18.5,-3.39 -6.63,-0.98 -12.79,-1.49 -18.49,-1.54 -3.65,-0.08 -6.21,-0.84 -7.69,-2.29 -1.5,-1.45 -2.22,-3.13 -2.16,-5.04 -0.04,-3.62 1.56,-6.16 4.77,-7.64 3.21,-1.47 8.19,-2.18 14.94,-2.13 13.02,0.04 28.47,0.34 46.36,0.92 17.91,0.57 34.07,1.13 48.54,1.7 14.48,0.57 23.07,0.88 25.82,0.92 4.76,-0.15 22.32,-0.74 52.66,-1.77 30.34,-1.03 63.32,-1.62 98.92,-1.77 6.76,0.02 11.74,0.89 14.96,2.59 3.21,1.71 4.8,4.1 4.78,7.18 0.05,1.91 -0.66,3.59 -2.16,5.04 -1.49,1.45 -4.06,2.21 -7.71,2.29 -6.09,0.05 -14.56,0.56 -25.44,1.54 -10.87,0.97 -20.89,2.11 -30.06,3.39 -17.96,2.75 -30.13,10.2 -36.53,22.35 -6.4,12.15 -10.26,27.31 -11.57,45.47 -2.94,26.4 -4.75,62.67 -5.39,108.81 -0.64,46.13 -0.89,99.05 -0.77,158.74 v 104.81 c -0.03,4.24 0.64,7.16 2,8.78 1.36,1.62 3.57,2.39 6.63,2.31 8.34,0.03 25.25,-0.02 50.75,-0.13 25.5,-0.12 51.55,-0.44 78.16,-0.96 26.59,-0.53 45.7,-1.39 57.32,-2.6 19.02,-2.93 33.71,-8.79 44.09,-17.57 10.38,-8.79 17.06,-17.73 20.04,-26.82 2.39,-7.55 4.08,-15.26 5.08,-23.12 1.01,-7.86 1.79,-14.95 2.32,-21.27 -0.03,-3.16 0.63,-5.78 1.99,-7.86 1.34,-2.08 3.53,-3.16 6.56,-3.24 4.09,0.29 6.59,2.8 7.48,7.56 0.89,4.75 1.25,10.04 1.07,15.87 0.05,5.68 0.56,17.44 1.55,35.29 0.96,17.85 2.09,33.62 3.38,47.31 2.03,20.15 4.13,35.77 6.32,46.87 2.18,11.11 3.37,18.45 3.55,22.02 0.04,3.11 -0.37,5.52 -1.24,7.25 -0.88,1.72 -2.51,2.59 -4.92,2.62 -2.43,-0.13 -4.69,-1.42 -6.79,-3.86 -2.1,-2.44 -4.35,-5.26 -6.74,-8.48 -5.31,-7.78 -12.43,-13.17 -21.33,-16.18 -8.89,-3.01 -20.66,-5.01 -35.28,-6.01 -8.56,-0.59 -17.35,-0.95 -26.36,-1.08 -9.02,-0.13 -18.73,-0.18 -29.14,-0.15 l -157.86,-1.23 c -3.59,0 -5.96,0.92 -7.09,2.77 -1.13,1.85 -1.65,4.62 -1.54,8.32 v 340.34 c 0,4.88 0.93,8.37 2.77,10.48 1.86,2.1 4.63,3.13 8.34,3.08 l 189.91,-3.7 c 24.07,-1.18 43.12,-5.91 57.14,-14.18 14.01,-8.27 22.88,-16.7 26.56,-25.28 3.7,-8.35 6.47,-16.93 8.32,-25.74 1.85,-8.81 2.77,-15.85 2.77,-21.12 -0.02,-4.39 0.66,-7.93 2.01,-10.63 1.36,-2.7 3.57,-4.09 6.62,-4.16 3.03,0.18 5.29,1.67 6.78,4.47 1.5,2.8 2.52,5.83 3.08,9.09 1.26,9.03 2.44,22.87 3.55,41.5 1.1,18.63 1.97,31.87 2.62,39.73 2.02,16.98 4.13,29.87 6.32,38.68 2.18,8.8 3.36,15.22 3.54,19.25 0,3.16 -0.61,5.78 -1.85,7.86 -1.24,2.08 -3.08,3.16 -5.55,3.24 -2.41,-0.16 -4.98,-1.08 -7.7,-2.78 -2.73,-1.69 -5.91,-3.23 -9.56,-4.62 -5.63,-1.74 -13.13,-2.87 -22.44,-3.39 -9.32,-0.51 -19.87,-1.02 -31.64,-1.54 -8.26,-0.3 -26.89,-0.47 -55.9,-0.52 -28.99,-0.04 -61.39,-0.03 -97.15,0.06 -35.77,0.09 -67.91,0.18 -96.45,0.29 -28.54,0.1 -46.46,0.16 -53.78,0.17 l -50.46,1.23 c -13.79,0.59 -28.43,0.95 -43.9,1.08 -15.5,0.13 -30.43,0.18 -44.85,0.16 -6.75,0.05 -11.72,-0.67 -14.94,-2.16 -3.21,-1.48 -4.8,-4.04 -4.78,-7.68 0.1,-2.46 1.14,-4.3 3.09,-5.53 1.94,-1.23 4.2,-1.84 6.78,-1.84 5.98,0.05 13.11,-0.23 21.41,-0.83 8.29,-0.61 15.13,-1.53 20.49,-2.76 19.85,-4.09 33.46,-11.64 40.83,-22.66 7.38,-11.02 11.43,-26.89 12.17,-47.63 0.82,-12.14 1.39,-26.76 1.73,-43.84 0.35,-17.08 0.57,-42.65 0.64,-76.72 0.08,-34.07 0.11,-82.66 0.11,-145.78 v -216.84 0" style="fill:#001e4e;fill-opacity:1;fill-rule:evenodd;stroke:none" id="path74"/><path d="m 8473.22,1536.78 c -0.34,-75.84 15.95,-150.57 48.91,-224.19 32.94,-73.62 84.66,-134.92 155.16,-183.88 70.48,-48.97 161.84,-74.39 274.09,-76.26 99.6,1.11 186.12,24.21 259.53,69.32 73.42,45.1 130.33,105.54 170.73,181.32 40.4,75.78 60.9,160.26 61.47,253.41 -0.86,96.14 -22.16,178.63 -63.94,247.48 -41.77,68.85 -98.95,121.74 -171.54,158.67 -72.59,36.94 -155.55,55.6 -248.84,55.98 -84.95,-0.95 -158.09,-16.68 -219.43,-47.2 -61.34,-30.52 -111.66,-70.13 -150.96,-118.83 -39.29,-48.7 -68.35,-100.79 -87.16,-156.28 -18.81,-55.48 -28.15,-108.66 -28.02,-159.54 z m 116.94,34.52 c 0.63,90 16.49,165.05 47.59,225.14 31.07,60.09 73.61,105.19 127.56,135.28 53.96,30.1 115.58,45.15 184.85,45.16 65.93,-0.14 127.18,-17.53 183.72,-52.19 56.54,-34.65 102.27,-85.74 137.17,-153.27 34.9,-67.53 52.85,-150.67 53.87,-249.44 -0.9,-89.08 -13.42,-161.55 -37.56,-217.41 -24.13,-55.86 -54.45,-98.7 -90.96,-128.54 -36.49,-29.83 -73.74,-50.26 -111.76,-61.27 -38.01,-11.02 -71.33,-16.22 -99.98,-15.62 -74.73,0.51 -141.69,20.03 -200.89,58.58 -59.22,38.54 -106.09,93.04 -140.64,163.5 -34.56,70.46 -52.2,153.82 -52.97,250.08 v 0" style="fill:#001e4e;fill-opacity:1;fill-rule:evenodd;stroke:none" id="path76"/><path d="m 9704.56,1427.14 c 0.12,-59.7 -0.13,-112.62 -0.77,-158.76 -0.65,-46.14 -2.43,-82.41 -5.4,-108.82 -2.1,-18.16 -5.6,-33.32 -10.47,-45.47 -4.88,-12.15 -13.31,-19.6 -25.27,-22.35 -5.7,-1.28 -11.86,-2.42 -18.49,-3.39 -6.63,-0.98 -12.78,-1.49 -18.49,-1.54 -3.65,-0.08 -6.21,-0.84 -7.7,-2.29 -1.49,-1.45 -2.2,-3.13 -2.15,-5.04 -0.04,-3.62 1.56,-6.16 4.77,-7.64 3.21,-1.47 8.2,-2.18 14.95,-2.13 13.04,0.04 28.43,0.34 46.17,0.92 17.74,0.57 33.49,1.13 47.26,1.7 13.77,0.57 21.23,0.88 22.35,0.92 4.77,-0.15 22.29,-0.74 52.68,-1.77 30.3,-1.03 63.3,-1.62 98.9,-1.77 6.8,0.02 11.71,0.89 14.9,2.59 3.31,1.71 4.9,4.1 4.81,7.18 0.09,1.91 -0.61,3.59 -2.11,5.04 -1.5,1.45 -4.09,2.21 -7.7,2.29 -6.1,0.05 -14.6,0.56 -25.5,1.54 -10.8,0.97 -20.9,2.11 -30,3.39 -18,2.75 -30.19,10.2 -36.6,22.35 -6.4,12.15 -10.2,27.31 -11.5,45.47 -3,26.41 -4.8,62.68 -5.4,108.82 -0.69,46.14 -0.89,99.06 -0.8,158.76 v 29.59 c 0,3.11 0.61,5.52 2,7.24 1.4,1.72 3.61,2.59 6.6,2.62 l 151.7,-2.46 c 3.6,0 6.6,-0.62 9,-1.85 2.31,-1.23 4.7,-3.08 7.1,-5.55 13.1,-17.39 32.1,-43.33 57,-77.83 24.9,-34.51 50.6,-69.39 77.4,-104.66 34.3,-46.24 64.1,-84.47 89.5,-114.68 25.4,-30.21 51,-52.4 76.7,-66.59 15.2,-8.47 32.6,-14.5 52.1,-18.06 19.5,-3.57 46.1,-5.31 79.8,-5.2 h 87.5 c 10.9,-0.05 18.7,0.66 23.1,2.13 4.5,1.48 6.6,4.02 6.5,7.64 -0.1,1.91 -1.2,3.59 -3.2,5.04 -2.1,1.45 -4.7,2.21 -7.9,2.29 -3.8,-0.08 -9.8,0.07 -18,0.46 -8.3,0.39 -18.3,1.46 -30.1,3.24 -15.6,1.46 -36.2,8.09 -61.8,19.88 -25.6,11.79 -55.1,34.76 -88.5,68.9 -35.7,38.51 -74.7,84.49 -117.1,137.93 -42.4,53.45 -88.8,112.65 -139.2,177.6 54.7,50.92 93.4,99.77 116.1,146.54 22.7,46.77 33.6,92.85 32.9,138.24 -1.6,42.82 -11.9,78.63 -30.9,107.43 -19,28.79 -37,48.88 -54,60.26 -33.1,22.71 -69.2,37.57 -108.2,44.58 -38.99,7.01 -78.1,10.18 -117.4,9.51 -13.59,-0.05 -30.8,-0.35 -51.7,-0.92 -20.89,-0.57 -40.39,-1.14 -58.5,-1.71 -18.2,-0.57 -29.91,-0.87 -35.26,-0.92 -5.02,0.15 -22.06,0.74 -51.11,1.78 -29.04,1.03 -58.41,1.62 -88.09,1.77 -6.75,0.05 -11.73,-0.66 -14.93,-2.14 -3.22,-1.48 -4.81,-4.02 -4.79,-7.64 0.11,-2.44 1.13,-4.27 3.09,-5.49 1.95,-1.22 4.2,-1.84 6.77,-1.84 5.99,0 13.12,-0.3 21.43,-0.92 8.28,-0.62 15.11,-1.54 20.48,-2.77 19.86,-4.09 33.46,-11.64 40.84,-22.66 7.36,-11.02 11.43,-26.89 12.16,-47.62 0.81,-12.15 1.39,-26.76 1.73,-43.84 0.36,-17.08 0.57,-42.65 0.64,-76.72 0.08,-34.07 0.11,-82.65 0.1,-145.76 V 1427.14 Z M 9803,1939.9 c 0,3.69 0.91,6.78 2.61,9.24 1.69,2.47 4.19,4.32 7.29,5.55 6.5,1.93 17.21,3.62 32,5.09 14.9,1.46 31.71,2.23 50.6,2.31 66.61,-0.64 118.7,-22.48 156.1,-65.5 37.5,-43.03 56.6,-103.39 57.2,-181.1 -0.4,-47.06 -7.5,-86.72 -21.4,-118.98 -13.8,-32.26 -31.8,-55.9 -53.8,-70.9 -14.4,-9.6 -29.7,-15.97 -45.8,-19.11 -16.1,-3.13 -31.6,-4.57 -46.69,-4.31 -28.01,0.12 -54,2.03 -78.11,5.7 -24.2,3.67 -41.3,8.35 -51.4,14.02 -2.99,1.85 -5.2,4.01 -6.6,6.48 -1.39,2.46 -2,5.24 -2,8.32 v 403.19 0" style="fill:#001e4e;fill-opacity:1;fill-rule:evenodd;stroke:none" id="path78"/><path d="m 10633.9,1427.05 c 0.1,-59.68 -0.1,-112.59 -0.8,-158.71 -0.6,-46.13 -2.4,-82.39 -5.3,-108.8 -2.2,-18.15 -5.6,-33.31 -10.5,-45.45 -4.9,-12.15 -13.3,-19.6 -25.3,-22.35 -5.7,-1.29 -11.9,-2.42 -18.5,-3.39 -6.6,-0.98 -12.8,-1.49 -18.5,-1.54 -3.6,-0.08 -6.2,-0.84 -7.7,-2.29 -1.5,-1.45 -2.2,-3.13 -2.1,-5.04 -0.1,-3.62 1.5,-6.16 4.7,-7.64 3.3,-1.47 8.2,-2.18 15,-2.13 9.5,0.1 20.7,0.5 33.4,1.22 12.8,0.71 25.5,1.12 38.1,1.22 13.2,0.6 24.3,0.97 33.4,1.1 9,0.13 14.3,0.18 15.8,0.15 3.6,-0.07 14.6,-0.85 33.1,-2.31 18.5,-1.46 41.5,-3.16 69.1,-5.08 27.1,-1.93 55.6,-3.63 85.7,-5.09 30.1,-1.46 58.7,-2.23 85.7,-2.31 69.6,0.72 129,8.85 178.2,24.39 49.2,15.54 89.7,34.15 121.5,55.85 31.8,21.7 56.5,42.16 73.9,61.37 35.7,36.6 66.5,84.22 92.3,142.85 25.9,58.64 39.4,126.9 40.6,204.8 -1.1,73.22 -13.3,135.73 -36.6,187.53 -23.3,51.8 -50.9,93.67 -82.8,125.59 -50,49.42 -105.4,84 -166.2,103.72 -60.8,19.73 -120.3,31.04 -178.3,33.93 -58.1,2.9 -108,3.81 -149.8,2.74 -38.4,-0.15 -73.5,-0.74 -105.4,-1.77 -31.9,-1.04 -52.2,-1.63 -61,-1.78 -5,0.15 -22.1,0.74 -51.1,1.78 -29.1,1.03 -58.4,1.62 -88.1,1.77 -6.8,0.05 -11.7,-0.66 -14.9,-2.14 -3.3,-1.48 -4.8,-4.02 -4.8,-7.64 0.1,-2.44 1.1,-4.27 3.1,-5.49 1.9,-1.22 4.2,-1.84 6.7,-1.84 6,0 13.2,-0.3 21.5,-0.92 8.2,-0.62 15.1,-1.55 20.4,-2.78 19.9,-4.08 33.5,-11.63 40.9,-22.65 7.3,-11.02 11.4,-26.89 12.1,-47.62 0.9,-12.14 1.4,-26.75 1.8,-43.83 0.3,-17.08 0.5,-42.64 0.6,-76.71 0.1,-34.06 0.1,-82.64 0.1,-145.74 v -216.97 z m 103.4,236.7 c 0,32.35 0,66 0,100.96 0.1,34.95 0.2,66.96 0.4,96.02 0.1,29.06 0.4,50.93 0.8,65.61 0,6.65 1,11.84 3.3,15.57 2.2,3.72 6.1,6.75 11.5,9.09 6.1,2.51 17.6,4.57 34.5,6.16 16.9,1.59 32.1,2.41 45.7,2.46 73.7,1.83 144.7,-6.13 213.1,-23.88 68.3,-17.75 131.7,-56.22 190,-115.42 27.1,-26.35 53.1,-65.18 78.1,-116.5 25.1,-51.31 38.5,-116.04 40.3,-194.16 -0.1,-57.97 -8.6,-113.4 -25.3,-166.28 -16.8,-52.88 -41.2,-95.67 -73.4,-128.36 -36.9,-36.6 -80.5,-64.8 -131,-84.6 -50.4,-19.8 -104.5,-29.82 -162.4,-30.05 -71.4,0.59 -122.5,5.88 -153.3,15.87 -30.9,9.99 -49.6,21.14 -56.3,33.44 -4.8,7.91 -8.1,21.37 -10,40.37 -1.9,19.01 -3.1,36.78 -3.5,53.32 -0.7,13.23 -1.2,44.41 -1.7,93.54 -0.5,49.13 -0.8,107.13 -0.8,173.98 v 152.86 0" style="fill:#001e4e;fill-opacity:1;fill-rule:evenodd;stroke:none" id="path80"/><path d="m 11751.9,1427.11 c 0.1,-59.65 -0.2,-112.54 -0.8,-158.65 -0.7,-46.12 -2.5,-82.38 -5.4,-108.77 -2.1,-18.16 -5.6,-33.31 -10.5,-45.46 -4.9,-12.14 -13.3,-19.59 -25.3,-22.34 -5.7,-1.35 -11.8,-2.53 -18.4,-3.52 -6.7,-0.99 -12.8,-1.51 -18.5,-1.56 -3.7,-0.08 -6.2,-0.84 -7.7,-2.29 -1.5,-1.45 -2.2,-3.13 -2.2,-5.04 0,-3.62 1.6,-6.16 4.8,-7.64 3.2,-1.47 8.2,-2.18 14.9,-2.13 9.6,0.1 20.7,0.5 33.5,1.22 12.7,0.71 25.4,1.12 38,1.22 13.2,0.6 24.3,0.97 33.4,1.1 9,0.13 14.3,0.18 15.8,0.15 9.1,0 21.4,-0.31 37,-0.92 15.5,-0.62 35.2,-1.54 59.1,-2.77 24,-0.7 53.2,-1.47 87.6,-2.32 34.4,-0.84 74.7,-1.3 120.9,-1.38 23.2,-0.67 39.1,0.66 47.9,3.99 8.8,3.33 14.9,12.65 18.5,27.96 2.1,9.42 4.4,22.85 6.9,40.28 2.4,17.43 4.5,33.97 6.3,49.62 1.8,15.66 2.7,25.54 2.8,29.64 0.1,4.55 -0.2,8.72 -0.9,12.52 -0.8,3.8 -3,5.81 -6.5,6.05 -3,0.07 -5.3,-1.33 -6.9,-4.2 -1.7,-2.87 -3,-7.66 -4.2,-14.37 -4.1,-24.97 -10.4,-44.39 -18.9,-58.26 -8.6,-13.87 -20.7,-24.04 -36.5,-30.52 -16.9,-6.5 -36.6,-10.45 -59.1,-11.87 -22.5,-1.41 -42.2,-1.97 -59.2,-1.69 -58.6,-1.11 -97.1,5.11 -115.5,18.65 -18.3,13.54 -27.5,41.02 -27.6,82.46 -0.4,9.98 -0.5,28.93 -0.5,56.85 0,27.93 0.1,56.74 0.3,86.45 0.1,29.71 0.2,52.22 0.2,67.54 v 108.51 c 0,2.52 0.7,4.57 2,6.16 1.4,1.59 3.6,2.42 6.7,2.47 8.1,-0.01 24,-0.27 47.6,-0.78 23.6,-0.51 47.9,-1.22 72.9,-2.14 24.9,-0.92 43.6,-2 55.8,-3.24 23.4,-2.88 39.5,-8.53 48.3,-16.96 8.7,-8.42 14,-17.16 15.9,-26.2 2.3,-7.94 3.8,-15.18 4.3,-21.73 0.5,-6.55 0.7,-12.87 0.6,-18.96 0,-3.16 0.6,-5.78 2,-7.86 1.3,-2.08 3.5,-3.16 6.5,-3.24 4.1,0.36 6.6,3.03 7.5,8.02 0.9,4.98 1.3,10.12 1.1,15.41 0.1,5.52 0.6,16.67 1.5,33.44 1,16.78 2.1,31.93 3.4,45.47 2.1,20.14 4.2,35.76 6.3,46.86 2.2,11.11 3.4,18.45 3.6,22.02 0,3.65 -0.6,6.22 -1.7,7.71 -1.1,1.49 -2.6,2.21 -4.5,2.16 -2.4,-0.06 -5,-1.49 -7.8,-4.32 -2.9,-2.83 -6.4,-6.73 -10.6,-11.71 -5.4,-5.96 -12.7,-10.07 -22,-12.34 -9.2,-2.26 -21.2,-3.9 -35.9,-4.93 -11,-0.8 -31,-1.38 -59.9,-1.73 -28.8,-0.35 -57,-0.57 -84.5,-0.64 -27.5,-0.08 -44.7,-0.11 -51.7,-0.09 -3,-0.03 -5,0.95 -6,2.92 -1,1.98 -1.4,5.12 -1.4,9.41 v 340.33 c 0,4.29 0.7,7.43 1.9,9.4 1.2,1.98 3.1,2.96 5.5,2.93 6,0 21.1,-0.14 45.2,-0.41 24.2,-0.27 48.7,-0.68 73.7,-1.23 25,-0.55 41.7,-1.23 50.1,-2.06 32.2,-3.75 54.1,-9.19 65.5,-16.34 11.4,-7.14 18.7,-15.67 22,-25.58 2.9,-7.79 4.9,-15.96 5.9,-24.51 1,-8.55 1.5,-15.18 1.4,-19.88 -0.1,-4.99 0.7,-8.89 2.2,-11.72 1.4,-2.82 4,-4.26 7.7,-4.31 2.4,0.18 4.3,1.67 5.7,4.47 1.3,2.8 2.3,5.83 2.9,9.09 1.2,9.03 2.4,22.87 3.5,41.5 1.1,18.63 2,31.87 2.7,39.73 2,16.98 4.1,29.87 6.3,38.68 2.2,8.8 3.3,15.22 3.5,19.25 0,3.16 -0.3,5.78 -1.1,7.86 -0.7,2.08 -2,3.16 -3.8,3.24 -3,-0.18 -5.9,-1.06 -8.6,-2.62 -2.8,-1.57 -5.6,-2.75 -8.7,-3.55 -5,-1.25 -12.1,-2.43 -21.3,-3.54 -9.2,-1.1 -19.7,-1.98 -31.5,-2.62 -8.3,-0.3 -26.6,-0.54 -54.9,-0.71 -28.3,-0.17 -59.5,-0.29 -93.7,-0.37 -34.2,-0.07 -64.2,-0.12 -90,-0.13 -25.8,-0.02 -40.4,-0.02 -43.8,-0.02 l -50.4,2.46 c -13.8,0.59 -28.4,0.95 -43.9,1.08 -15.5,0.13 -30.5,0.18 -44.9,0.16 -6.7,0.05 -11.7,-0.66 -14.9,-2.14 -3.2,-1.48 -4.8,-4.02 -4.8,-7.64 0.1,-2.44 1.2,-4.27 3.1,-5.49 2,-1.22 4.2,-1.84 6.8,-1.84 6,0.01 13.1,-0.3 21.4,-0.92 8.3,-0.61 15.1,-1.54 20.5,-2.77 19.8,-4.09 33.4,-11.64 40.8,-22.66 7.4,-11.02 11.4,-26.89 12.2,-47.63 0.8,-12.14 1.4,-26.76 1.7,-43.84 0.4,-17.08 0.6,-42.65 0.7,-76.72 0,-34.07 0.1,-82.66 0.1,-145.78 v -216.84 0" style="fill:#001e4e;fill-opacity:1;fill-rule:evenodd;stroke:none" id="path82"/><path d="m 12503.7,1427.14 c 0.1,-59.7 -0.1,-112.62 -0.7,-158.76 -0.7,-46.14 -2.5,-82.41 -5.4,-108.82 -2.1,-18.16 -5.6,-33.32 -10.5,-45.47 -4.9,-12.15 -13.3,-19.6 -25.3,-22.35 -5.7,-1.28 -11.8,-2.42 -18.5,-3.39 -6.6,-0.98 -12.8,-1.49 -18.5,-1.54 -3.6,-0.08 -6.2,-0.84 -7.7,-2.29 -1.5,-1.45 -2.2,-3.13 -2.1,-5.04 0,-3.62 1.5,-6.16 4.8,-7.64 3.2,-1.47 8.1,-2.18 14.9,-2.13 13,0.04 28.4,0.34 46.2,0.92 17.7,0.57 33.5,1.13 47.2,1.7 13.8,0.57 21.3,0.88 22.4,0.92 4.8,-0.15 22.3,-0.74 52.6,-1.77 30.4,-1.03 63.4,-1.62 99,-1.77 6.7,0.02 11.7,0.89 14.9,2.59 3.2,1.71 4.8,4.1 4.8,7.18 0,1.91 -0.7,3.59 -2.2,5.04 -1.5,1.45 -4,2.21 -7.7,2.29 -6.1,0.05 -14.5,0.56 -25.4,1.54 -10.9,0.97 -20.9,2.11 -30.1,3.39 -17.9,2.75 -30.1,10.2 -36.5,22.35 -6.4,12.15 -10.3,27.31 -11.6,45.47 -2.9,26.41 -4.7,62.68 -5.4,108.82 -0.6,46.14 -0.9,99.06 -0.7,158.76 v 29.59 c -0.1,3.11 0.6,5.52 2,7.24 1.3,1.72 3.5,2.59 6.6,2.62 l 151.7,-2.46 c 3.6,0 6.6,-0.62 8.9,-1.85 2.4,-1.23 4.8,-3.08 7.1,-5.55 13.2,-17.39 32.2,-43.33 57.1,-77.83 24.8,-34.51 50.6,-69.39 77.3,-104.66 34.3,-46.24 64.2,-84.47 89.6,-114.68 25.4,-30.21 50.9,-52.4 76.7,-66.59 15.2,-8.47 32.5,-14.5 52.1,-18.06 19.5,-3.57 46.1,-5.31 79.8,-5.2 h 87.5 c 10.9,-0.05 18.6,0.66 23.1,2.13 4.5,1.48 6.6,4.02 6.5,7.64 -0.1,1.91 -1.2,3.59 -3.3,5.04 -2.1,1.45 -4.7,2.21 -7.8,2.29 -3.8,-0.08 -9.8,0.07 -18.1,0.46 -8.2,0.39 -18.2,1.46 -30,3.24 -15.6,1.46 -36.2,8.09 -61.8,19.88 -25.6,11.79 -55.1,34.76 -88.6,68.9 -35.6,38.51 -74.6,84.49 -117,137.93 -42.4,53.45 -88.8,112.65 -139.2,177.6 54.7,50.92 93.4,99.77 116.1,146.54 22.6,46.77 33.6,92.85 32.9,138.24 -1.6,42.82 -11.9,78.63 -30.9,107.43 -19,28.79 -37,48.88 -54,60.26 -33.2,22.71 -69.2,37.57 -108.2,44.58 -39,7.01 -78.2,10.18 -117.5,9.51 -13.6,-0.05 -30.8,-0.35 -51.7,-0.92 -20.8,-0.57 -40.3,-1.14 -58.5,-1.71 -18.1,-0.57 -29.8,-0.87 -35.2,-0.92 -5,0.15 -22.1,0.74 -51.1,1.78 -29,1.03 -58.4,1.62 -88.1,1.77 -6.7,0.05 -11.7,-0.66 -14.9,-2.14 -3.2,-1.48 -4.8,-4.02 -4.8,-7.64 0.1,-2.44 1.1,-4.27 3.1,-5.49 1.9,-1.22 4.2,-1.84 6.7,-1.84 6,0 13.2,-0.3 21.5,-0.92 8.3,-0.62 15.1,-1.54 20.5,-2.77 19.8,-4.09 33.4,-11.64 40.8,-22.66 7.4,-11.02 11.4,-26.89 12.2,-47.62 0.8,-12.15 1.3,-26.76 1.7,-43.84 0.3,-17.08 0.6,-42.65 0.6,-76.72 0.1,-34.07 0.1,-82.65 0.1,-145.76 v -216.84 z m 98.5,512.76 c 0,3.69 0.9,6.78 2.6,9.24 1.7,2.47 4.1,4.32 7.2,5.55 6.6,1.93 17.3,3.62 32.1,5.09 14.9,1.46 31.7,2.23 50.6,2.31 66.6,-0.64 118.6,-22.48 156.1,-65.5 37.5,-43.03 56.6,-103.39 57.2,-181.1 -0.4,-47.06 -7.6,-86.72 -21.4,-118.98 -13.9,-32.26 -31.8,-55.9 -53.8,-70.9 -14.4,-9.6 -29.7,-15.97 -45.8,-19.11 -16.1,-3.13 -31.7,-4.57 -46.7,-4.31 -28,0.12 -54,2.03 -78.2,5.7 -24.1,3.67 -41.2,8.35 -51.3,14.02 -3.1,1.85 -5.3,4.01 -6.6,6.48 -1.4,2.46 -2.1,5.24 -2,8.32 v 403.19 0" style="fill:#001e4e;fill-opacity:1;fill-rule:evenodd;stroke:none" id="path84"/></g></g></svg>